# xmcd CD database file
#
# Track frame offsets:
#	150
#	11772
#	24092
#	38922
#	51097
#	62785
#	75457
#	87270
#	98372
#	112997
#	137860
#	151020
#	169672
#	187560
#	206537
#	219480
#	233410
#	250412
#	265825
#	277425
#	290672
#	300795
#	311295
#
# Disc length: 4305 seconds
#
# Revision: 0
# Processed by: cddbd v1.4PL0 Copyright (c) Steve Scherf et al.
# Submitted via: CDex 1.40Release
#
DISCID=2210cf17
DTITLE=Various Artist - Country Classics - Legends Of Country Music
DYEAR=1999
DGENRE=Country
TTITLE0=Johnny Cash/I Walk The Line
TTITLE1=Billy Joe Spears/What I've Got In Mind
TTITLE2=Olivia Newton-John/Take Me Home Country Roads
TTITLE3=Merle Haggard/Okie From Muskogee
TTITLE4=Patsy Cline/Walkin' After Midnight
TTITLE5=Hank Williams Snr./I'm So Lonesome I Could Cry
TTITLE6=Tennessee Ernie Ford/Sixteen Tons
TTITLE7=Roger Miller/King Of The Road
TTITLE8=Dr Hook/A Little Bit More
TTITLE9=Willie Nelson/Funny How Time Slips Away
TTITLE10=Crystal Gayle/Talking In Your Sleep
TTITLE11=Juice Newton/Angel Of The Morning
TTITLE12=Lee Greenwood/The Wind Beneath My Wings
TTITLE13=Nanci Griffith/From A Distance
TTITLE14=Bobby Gentry/I'll Never Fall In Love Again
TTITLE15=Glen Campbell/Wichita Lineman
TTITLE16=C W McCall/Convoy
TTITLE17=Billy Ray Cyrus/Achy Breaky Heart
TTITLE18=Steve Earle/Guitar Town
TTITLE19=Faron Young/It's Four In The Morning
TTITLE20=Conway Twitty/It's Only Make Believe
TTITLE21=Slim Whitman/Rose Marie
TTITLE22=Glen Campbell and Bobbie Gentry/All I Have To Do Is Dream 
EXTD=YEAR: 1999 ID3G: 2
EXTT0=
EXTT1=
EXTT2=
EXTT3=
EXTT4=
EXTT5=
EXTT6=
EXTT7=
EXTT8=
EXTT9=
EXTT10=
EXTT11=
EXTT12=
EXTT13=
EXTT14=
EXTT15=
EXTT16=
EXTT17=
EXTT18=
EXTT19=
EXTT20=
EXTT21=
EXTT22=
PLAYORDER=
